<svg xmlns="http://www.w3.org/2000/svg" xmlns:xlink="http://www.w3.org/1999/xlink" version="1.1" id="Layer_1" x="0px" y="0px" width="100%" viewBox="0 0 500 500" enable-background="new 0 0 500 500" xml:space="preserve">
<path fill="#000000" opacity="1.000000" stroke="none" d=" M444.000000,501.000000   C296.000031,501.000000 148.500076,501.000000 1.000079,501.000000   C1.000053,334.333405 1.000053,167.666809 1.000026,1.000169   C167.666550,1.000112 334.333099,1.000112 500.999756,1.000056   C500.999817,167.666519 500.999817,334.333038 500.999908,500.999756   C482.166656,501.000000 463.333344,501.000000 444.000000,501.000000  M393.538696,266.671417   C393.628296,265.869720 393.717865,265.067993 393.807465,264.266296   C393.561981,264.240173 393.316467,264.214081 393.070984,264.187958   C393.004181,265.093506 392.937378,265.999054 392.648834,267.075531   C392.798584,267.093903 392.948334,267.112274 393.538696,266.671417  M365.979584,358.507690   C366.158325,358.700531 366.337036,358.893402 366.515778,359.086243   C366.367950,358.707306 366.220123,358.328339 366.296844,357.399963   C366.338684,356.546051 366.380493,355.692169 366.422302,354.838257   C364.630829,355.855255 361.465454,356.816986 365.979584,358.507690  M119.470757,223.365158   C118.031967,223.505844 116.593178,223.646515 115.154381,223.787201   C115.290100,224.416870 115.425812,225.046524 115.561531,225.676193   C117.044853,225.027130 118.528183,224.378052 119.470757,223.365158  M377.587799,371.799713   C377.005707,371.838623 376.423584,371.877533 375.841492,371.916443   C376.016815,372.272491 376.192108,372.628540 376.367432,372.984589   C376.917358,372.695129 377.467255,372.405640 377.587799,371.799713  M371.360992,375.362457   C371.688751,375.312225 372.016541,375.261993 372.344299,375.211731   C371.999786,375.123566 371.655243,375.035400 371.360992,375.362457  M309.870209,143.075897   C309.778259,143.297455 309.569733,143.682251 309.613617,143.713623   C309.864380,143.892731 310.175201,143.987701 310.465637,144.111267   C310.495087,143.747116 310.524536,143.382980 309.870209,143.075897  M354.248688,362.176453   C354.420044,362.122009 354.591400,362.067535 354.762756,362.013062   C354.590607,361.958527 354.418457,361.904022 354.248688,362.176453  M401.188202,269.742035   C401.134888,269.575256 401.081543,269.408508 401.028259,269.241730   C400.976288,269.408661 400.924347,269.575592 401.188202,269.742035  M383.292023,266.840973   C383.373505,266.791595 383.455017,266.742218 383.292023,266.840973  M396.699677,265.151978   C396.621338,265.197205 396.542969,265.242462 396.699677,265.151978  M120.486298,229.355240   C120.540710,229.151382 120.595123,228.947525 120.649544,228.743668   C120.514343,228.875763 120.379135,229.007843 120.486298,229.355240  M399.478760,267.596497   C399.478760,267.596497 399.416321,267.490601 399.478760,267.596497  M386.593109,269.516418   C386.593109,269.516418 386.481842,269.582245 386.593109,269.516418  M390.616150,269.519226   C390.616150,269.519226 390.475616,269.606476 390.616150,269.519226  M128.449844,231.487473   C128.449844,231.487473 128.518326,231.453217 128.449844,231.487473  M364.611053,369.519623   C364.611053,369.519623 364.437073,369.420074 364.437073,369.420074   C364.437073,369.420074 364.461304,369.613861 364.611053,369.519623  M122.579559,230.516220   C122.579559,230.516220 122.466873,230.580582 122.579559,230.516220  z"/>
<path fill="#080808" opacity="1.000000" stroke="none" d=" M119.741135,223.547073   C118.528183,224.378052 117.044853,225.027130 115.561531,225.676193   C115.425812,225.046524 115.290100,224.416870 115.154381,223.787201   C116.593178,223.646515 118.031967,223.505844 119.741135,223.547073  z"/>
<path fill="#0B0B0B" opacity="1.000000" stroke="none" d=" M365.901093,358.096191   C361.465454,356.816986 364.630829,355.855255 366.422302,354.838257   C366.380493,355.692169 366.338684,356.546051 366.140686,357.710114   C365.984528,358.020264 365.901093,358.096191 365.901093,358.096191  z"/>
<path fill="#0B0B0B" opacity="1.000000" stroke="none" d=" M377.802490,371.957947   C377.467255,372.405640 376.917358,372.695129 376.367432,372.984589   C376.192108,372.628540 376.016815,372.272491 375.841492,371.916443   C376.423584,371.877533 377.005707,371.838623 377.802490,371.957947  z"/>
<path fill="#0A0A0A" opacity="1.000000" stroke="none" d=" M392.870544,266.904602   C392.937378,265.999054 393.004181,265.093506 393.070984,264.187958   C393.316467,264.214081 393.561981,264.240173 393.807465,264.266296   C393.717865,265.067993 393.628296,265.869720 393.264557,266.841461   C392.990417,267.011505 392.870544,266.904602 392.870544,266.904602  z"/>
<path fill="#0B0B0B" opacity="1.000000" stroke="none" d=" M371.335876,375.154846   C371.655243,375.035400 371.999786,375.123566 372.344299,375.211731   C372.016541,375.261993 371.688751,375.312225 371.335876,375.154846  z"/>
<path fill="#D9D9D9" opacity="1.000000" stroke="none" d=" M310.212097,143.047363   C310.524536,143.382980 310.495087,143.747116 310.465637,144.111267   C310.175201,143.987701 309.864380,143.892731 309.613617,143.713623   C309.569733,143.682251 309.778259,143.297455 310.212097,143.047363  z"/>
<path fill="#0B0B0B" opacity="1.000000" stroke="none" d=" M354.247498,362.013000   C354.418457,361.904022 354.590607,361.958527 354.762756,362.013062   C354.591400,362.067535 354.420044,362.122009 354.247498,362.013000  z"/>
<path fill="#0B0B0B" opacity="1.000000" stroke="none" d=" M366.028412,357.984833   C366.220123,358.328339 366.367950,358.707306 366.515778,359.086243   C366.337036,358.893402 366.158325,358.700531 365.940338,358.301941   C365.901093,358.096191 365.984528,358.020264 366.028412,357.984833  z"/>
<path fill="#0A0A0A" opacity="1.000000" stroke="none" d=" M401.030304,269.742249   C400.924347,269.575592 400.976288,269.408661 401.028229,269.241730   C401.081543,269.408508 401.134888,269.575256 401.030304,269.742249  z"/>
<path fill="#0A0A0A" opacity="1.000000" stroke="none" d=" M383.414246,266.766907   C383.455017,266.742218 383.373505,266.791595 383.414246,266.766907  z"/>
<path fill="#0A0A0A" opacity="1.000000" stroke="none" d=" M396.582153,265.219849   C396.542969,265.242462 396.621338,265.197205 396.582153,265.219849  z"/>
<path fill="#080808" opacity="1.000000" stroke="none" d=" M120.365112,229.247589   C120.379135,229.007843 120.514343,228.875763 120.649536,228.743668   C120.595123,228.947525 120.540710,229.151382 120.365112,229.247589  z"/>
<path fill="#0A0A0A" opacity="1.000000" stroke="none" d=" M399.447540,267.543549   C399.416321,267.490601 399.478760,267.596497 399.447540,267.543549  z"/>
<path fill="#0A0A0A" opacity="1.000000" stroke="none" d=" M386.537476,269.549316   C386.481842,269.582245 386.593109,269.516418 386.537476,269.549316  z"/>
<path fill="#0A0A0A" opacity="1.000000" stroke="none" d=" M390.545898,269.562866   C390.475616,269.606476 390.616150,269.519226 390.545898,269.562866  z"/>
<path fill="#0A0A0A" opacity="1.000000" stroke="none" d=" M393.044250,267.071045   C392.948334,267.112274 392.798584,267.093903 392.759705,266.990051   C392.870544,266.904602 392.990417,267.011505 393.044250,267.071045  z"/>
<path fill="#080808" opacity="1.000000" stroke="none" d=" M128.484085,231.470337   C128.518326,231.453217 128.449844,231.487473 128.484085,231.470337  z"/>
<path fill="#0B0B0B" opacity="1.000000" stroke="none" d=" M364.536194,369.566742   C364.461304,369.613861 364.437073,369.420074 364.437073,369.420074   C364.437073,369.420074 364.611053,369.519623 364.536194,369.566742  z"/>
<path fill="#080808" opacity="1.000000" stroke="none" d=" M122.523216,230.548401   C122.466873,230.580582 122.579559,230.516220 122.523216,230.548401  z"/>
</svg>